<svg width="20" height="14" viewBox="0 0 20 14" fill="none" xmlns="http://www.w3.org/2000/svg">
<path d="M1.99996 0.333374H8.66663C9.02025 0.333374 9.35938 0.47385 9.60943 0.723898C9.85948 0.973947 9.99996 1.31309 9.99996 1.66671C9.99996 2.02033 9.85948 2.35947 9.60943 2.60952C9.35938 2.85956 9.02025 3.00004 8.66663 3.00004H1.99996C1.64634 3.00004 1.3072 2.85956 1.05715 2.60952C0.807102 2.35947 0.666626 2.02033 0.666626 1.66671C0.666626 1.31309 0.807102 0.973947 1.05715 0.723898C1.3072 0.47385 1.64634 0.333374 1.99996 0.333374ZM11.3333 11H18C18.3536 11 18.6927 11.1405 18.9428 11.3906C19.1928 11.6406 19.3333 11.9798 19.3333 12.3334C19.3333 12.687 19.1928 13.0261 18.9428 13.2762C18.6927 13.5262 18.3536 13.6667 18 13.6667H11.3333C10.9797 13.6667 10.6405 13.5262 10.3905 13.2762C10.1404 13.0261 9.99996 12.687 9.99996 12.3334C9.99996 11.9798 10.1404 11.6406 10.3905 11.3906C10.6405 11.1405 10.9797 11 11.3333 11ZM1.99996 5.66671H18C18.3536 5.66671 18.6927 5.80718 18.9428 6.05723C19.1928 6.30728 19.3333 6.64642 19.3333 7.00004C19.3333 7.35366 19.1928 7.6928 18.9428 7.94285C18.6927 8.1929 18.3536 8.33337 18 8.33337H1.99996C1.64634 8.33337 1.3072 8.1929 1.05715 7.94285C0.807102 7.6928 0.666626 7.35366 0.666626 7.00004C0.666626 6.64642 0.807102 6.30728 1.05715 6.05723C1.3072 5.80718 1.64634 5.66671 1.99996 5.66671Z" fill="url(#paint0_linear_2133_976)"/>
<defs>
<linearGradient id="paint0_linear_2133_976" x1="19.3333" y1="11.5834" x2="7.00188" y2="-1.44032" gradientUnits="userSpaceOnUse">
<stop stop-color="#16509B"/>
<stop offset="1" stop-color="#62A5DA"/>
</linearGradient>
</defs>
</svg>
